<svg xmlns="http://www.w3.org/2000/svg" viewBox="-209 168.7 95 85"><style>.st0{display:none}.st1,.st2{display:inline}.st1{stroke:#5f3389;stroke-width:2.4;stroke-miterlimit:10;fill:none}.st2{fill:#fff}.st3{fill:#5f3389}.st3,.st4{display:inline;opacity:.2}.st5{fill:#5f3389}.st6{fill:none;stroke:#5f3389;stroke-width:2.4;stroke-linecap:round;stroke-linejoin:round;stroke-miterlimit:10}.st6,.st7{display:inline}.st8{fill:none;stroke:#5f3389;stroke-width:2.4;stroke-miterlimit:10}.st9{opacity:.2;enable-background:new}.st10{fill:none;stroke:#9e29a6;stroke-width:2.4;stroke-miterlimit:10}.st11{stroke-linejoin:round}.st11,.st12{fill:none;stroke:#5f3389;stroke-width:2.4;stroke-linecap:round;stroke-miterlimit:10}.st13{fill:#fff}.st14{opacity:.2;fill:#5f3389}.st15,.st16{fill:none;stroke:#9d7fb8;stroke-width:2.4;stroke-miterlimit:10}.st16{stroke:#5f3389;stroke-linejoin:round}.st17,.st18{display:inline}.st17{opacity:.2;enable-background:new;fill:#fff}.st18{fill:none;stroke:#5f3389;stroke-width:2.4;stroke-linejoin:round;stroke-miterlimit:10}.st19,.st20,.st21,.st22{fill:none;stroke:#5f3389;stroke-linecap:round}.st19{display:inline;stroke-linejoin:round;stroke-miterlimit:10;stroke-width:2}.st20,.st21,.st22{stroke-width:2.4}.st20{display:inline;stroke-miterlimit:10}.st21,.st22{stroke-linejoin:round}.st22{stroke-dasharray:0,4.0599}.st23{display:inline;fill:none;stroke:#fcc941;stroke-width:2;stroke-miterlimit:10}.st24,.st25{fill:#33a9e0}.st25{opacity:.2;enable-background:new}.st26{fill:none;stroke:#33a9e0;stroke-width:2.4;stroke-linecap:round;stroke-linejoin:round;stroke-miterlimit:10}.st27{opacity:.2;fill:#fff;enable-background:new}.st28{fill:none;stroke-width:2.4}.st28,.st29,.st30{stroke:#33a9e0;stroke-linejoin:round;stroke-miterlimit:10}.st29{stroke-linecap:round;fill:none;stroke-width:2}.st30{fill:#fff;stroke-width:2.4}.st30,.st31,.st32{stroke-linecap:round}.st31{fill:none;stroke:#33a9e0;stroke-width:2.4;stroke-miterlimit:10}.st32{stroke-linejoin:round}.st32,.st33,.st34{fill:none;stroke:#33a9e0;stroke-width:2.4}.st33{stroke-linecap:round;stroke-linejoin:round;stroke-dasharray:0,4.0599}.st34{stroke-miterlimit:10}.st35{opacity:.2;fill:#33a9e0}.st36{fill:none;stroke:#fcc941;stroke-width:2;stroke-miterlimit:10}.st37{opacity:.2;fill:#9e29a6}.st38{fill:none;stroke:#9e29a6;stroke-width:2.4;stroke-linejoin:round;stroke-miterlimit:10}.st39{fill:#9e29a6}.st40{display:inline;stroke-linecap:round}.st40,.st41{fill:none;stroke:#9e29a6;stroke-width:2.4;stroke-linejoin:round;stroke-miterlimit:10}.st41,.st42,.st43{display:inline}.st42{stroke:#9e29a6;stroke-width:2.4;stroke-miterlimit:10;fill:none}.st43{opacity:.2;fill:#9e29a6}.st44{stroke-width:2.4;stroke-linejoin:round;stroke-miterlimit:10}.st44,.st45,.st46,.st47,.st48{fill:none;stroke:#9e29a6;stroke-linecap:round}.st45{stroke-width:2.4;stroke-miterlimit:10}.st46,.st47,.st48{stroke-linejoin:round}.st46{display:inline;stroke-miterlimit:10;stroke-width:2}.st47,.st48{stroke-width:2.4}.st48{stroke-dasharray:0,4.0599}</style><g id="purple" class="st0"><g class="st7"><path class="st14" d="M-128.1 176.7c0-.5-.4-.9-.9-.9-9.2-.3-18.5 1.1-26.7 5.4-6.2 3.2-11.4 8-15.5 13.6-4.2.2-8.2 1.7-12 3.5-2.4 1.2-4.4 2.1-5.8 4.3-3.2 4.8-4.4 11.4-5 17.1-.1.5.5.7.9.5 3.6-2 8-2.7 12.1-2.8-.2.9-.4 1.9-.5 2.8v.3c-.1.2-.1.4 0 .6.1.2.2.4.4.5l.3.3-.9 2.7c-.1.2 0 .5.1.6 2.7 2.1 5.3 4.2 8 6.3.2.2.5.3.7.1.6-.4 1.3-.7 1.9-1.1.7.4 1.4.6 2.1.4l1.8-.6c.3 3.9.1 8-1.3 11.6-.2.4.3.8.7.7 5.4-1.4 11.4-3.4 15.8-7 2-1.6 2.6-3.2 3.5-5.7 1.4-3.7 2.3-7.7 2.3-11.7.7-.7 1.4-1.3 2.1-2 9.1-9.2 14.3-21.8 15.6-34.6.2-1.7.3-3.2.3-4.9zm-20.6 24.7c-3.8 0-6.9-3.1-6.9-7 0-3.8 3.1-6.9 6.9-6.9 3.8 0 6.9 3.1 6.9 6.9 0 3.9-3.1 7-6.9 7z"/><path class="st11" d="M-128.1 176.7c0-.5-.4-.9-.9-.9-9.2-.3-18.5 1.1-26.7 5.4-6.2 3.2-11.4 8-15.5 13.6-4.2.2-8.2 1.7-12 3.5-2.4 1.2-4.4 2.1-5.8 4.3-3.2 4.8-4.4 11.4-5 17.1-.1.5.5.7.9.5 3.6-2 8-2.7 12.1-2.8-.2.9-.4 1.9-.5 2.8v.3c-.1.2-.1.4 0 .6.1.2.2.4.4.5l.3.3-.9 2.7c-.1.2 0 .5.1.6 2.7 2.1 5.3 4.2 8 6.3.2.2.5.3.7.1.6-.4 1.3-.7 1.9-1.1.7.4 1.4.6 2.1.4l1.8-.6c.3 3.9.1 8-1.3 11.6-.2.4.3.8.7.7 5.4-1.4 11.4-3.4 15.8-7 2-1.6 2.6-3.2 3.5-5.7 1.4-3.7 2.3-7.7 2.3-11.7.7-.7 1.4-1.3 2.1-2 9.1-9.2 14.3-21.8 15.6-34.6.2-1.7.3-3.2.3-4.9zm-20.6 24.7c-3.8 0-6.9-3.1-6.9-7 0-3.8 3.1-6.9 6.9-6.9 3.8 0 6.9 3.1 6.9 6.9 0 3.9-3.1 7-6.9 7z"/><path class="st11" d="M-178.2 232.9l-.2-.2c-2.9-3.2-7.7-4-11.2-1.2l-.2.1c-3.6 2.9.2 9.2-4.8 10.5-.4.1-.5.8-.2 1.1 2.6 2.6 6.3 3.8 9.8 3.2 6.4-1 10.4-7.7 6.8-13.4v-.1z"/></g><path class="st6" d="M-146.1 218.2s-6.9 6.7-21.1 12.1M-171.3 194.9s-9.2 9.8-9.8 22.6"/></g><g id="blue"><path class="st35" d="M-128.1 176.7c0-.5-.4-.9-.9-.9-9.2-.3-18.5 1.1-26.7 5.4-6.2 3.2-11.4 8-15.5 13.6-4.2.2-8.2 1.7-12 3.5-2.4 1.2-4.4 2.1-5.8 4.3-3.2 4.8-4.4 11.4-5 17.1-.1.5.5.7.9.5 3.6-2 8-2.7 12.1-2.8-.2.9-.4 1.9-.5 2.8v.3c-.1.2-.1.4 0 .6.1.2.2.4.4.5l.3.3-.9 2.7c-.1.2 0 .5.1.6 2.7 2.1 5.3 4.2 8 6.3.2.2.5.3.7.1.6-.4 1.3-.7 1.9-1.1.7.4 1.4.6 2.1.4l1.8-.6c.3 3.9.1 8-1.3 11.6-.2.4.3.8.7.7 5.4-1.4 11.4-3.4 15.8-7 2-1.6 2.6-3.2 3.5-5.7 1.4-3.7 2.3-7.7 2.3-11.7.7-.7 1.4-1.3 2.1-2 9.1-9.2 14.3-21.8 15.6-34.6.2-1.7.3-3.2.3-4.9zm-20.6 24.7c-3.8 0-6.9-3.1-6.9-7 0-3.8 3.1-6.9 6.9-6.9 3.8 0 6.9 3.1 6.9 6.9 0 3.9-3.1 7-6.9 7z"/><path class="st26" d="M-128.1 176.7c0-.5-.4-.9-.9-.9-9.2-.3-18.5 1.1-26.7 5.4-6.2 3.2-11.4 8-15.5 13.6-4.2.2-8.2 1.7-12 3.5-2.4 1.2-4.4 2.1-5.8 4.3-3.2 4.8-4.4 11.4-5 17.1-.1.5.5.7.9.5 3.6-2 8-2.7 12.1-2.8-.2.9-.4 1.9-.5 2.8v.3c-.1.2-.1.4 0 .6.1.2.2.4.4.5l.3.3-.9 2.7c-.1.2 0 .5.1.6 2.7 2.1 5.3 4.2 8 6.3.2.2.5.3.7.1.6-.4 1.3-.7 1.9-1.1.7.4 1.4.6 2.1.4l1.8-.6c.3 3.9.1 8-1.3 11.6-.2.4.3.8.7.7 5.4-1.4 11.4-3.4 15.8-7 2-1.6 2.6-3.2 3.5-5.7 1.4-3.7 2.3-7.7 2.3-11.7.7-.7 1.4-1.3 2.1-2 9.1-9.2 14.3-21.8 15.6-34.6.2-1.7.3-3.2.3-4.9zm-20.6 24.7c-3.8 0-6.9-3.1-6.9-7 0-3.8 3.1-6.9 6.9-6.9 3.8 0 6.9 3.1 6.9 6.9 0 3.9-3.1 7-6.9 7z"/><path class="st26" d="M-178.2 232.9l-.2-.2c-2.9-3.2-7.7-4-11.2-1.2l-.2.1c-3.6 2.9.2 9.2-4.8 10.5-.4.1-.5.8-.2 1.1 2.6 2.6 6.3 3.8 9.8 3.2 6.4-1 10.4-7.7 6.8-13.4v-.1zM-146.1 218.2s-6.9 6.7-21.1 12.1M-171.3 194.9s-9.2 9.8-9.8 22.6"/></g><g id="pink" class="st0"><g class="st7"><path class="st38" d="M-128.1 176.7c0-.5-.4-.9-.9-.9-9.2-.3-18.5 1.1-26.7 5.4-6.2 3.2-11.4 8-15.5 13.6-4.2.2-8.2 1.7-12 3.5-2.4 1.2-4.4 2.1-5.8 4.3-3.2 4.8-4.4 11.4-5 17.1-.1.5.5.7.9.5 3.6-2 8-2.7 12.1-2.8-.2.9-.4 1.9-.5 2.8v.3c-.1.2-.1.4 0 .6.1.2.2.4.4.5l.3.3-.9 2.7c-.1.2 0 .5.1.6 2.7 2.1 5.3 4.2 8 6.3.2.2.5.3.7.1.6-.4 1.3-.7 1.9-1.1.7.4 1.4.6 2.1.4l1.8-.6c.3 3.9.1 8-1.3 11.6-.2.4.3.8.7.7 5.4-1.4 11.4-3.4 15.8-7 2-1.6 2.6-3.2 3.5-5.7 1.4-3.7 2.3-7.7 2.3-11.7.7-.7 1.4-1.3 2.1-2 9.1-9.2 14.3-21.8 15.6-34.6.2-1.7.3-3.2.3-4.9zm-20.6 24.7c-3.8 0-6.9-3.1-6.9-7 0-3.8 3.1-6.9 6.9-6.9 3.8 0 6.9 3.1 6.9 6.9 0 3.9-3.1 7-6.9 7z"/><path class="st37" d="M-128.1 176.7c0-.5-.4-.9-.9-.9-9.2-.3-18.5 1.1-26.7 5.4-6.2 3.2-11.4 8-15.5 13.6-4.2.2-8.2 1.7-12 3.5-2.4 1.2-4.4 2.1-5.8 4.3-3.2 4.8-4.4 11.4-5 17.1-.1.5.5.7.9.5 3.6-2 8-2.7 12.1-2.8-.2.9-.4 1.9-.5 2.8v.3c-.1.2-.1.4 0 .6.1.2.2.4.4.5l.3.3-.9 2.7c-.1.2 0 .5.1.6 2.7 2.1 5.3 4.2 8 6.3.2.2.5.3.7.1.6-.4 1.3-.7 1.9-1.1.7.4 1.4.6 2.1.4l1.8-.6c.3 3.9.1 8-1.3 11.6-.2.4.3.8.7.7 5.4-1.4 11.4-3.4 15.8-7 2-1.6 2.6-3.2 3.5-5.7 1.4-3.7 2.3-7.7 2.3-11.7.7-.7 1.4-1.3 2.1-2 9.1-9.2 14.3-21.8 15.6-34.6.2-1.7.3-3.2.3-4.9zm-20.6 24.7c-3.8 0-6.9-3.1-6.9-7 0-3.8 3.1-6.9 6.9-6.9 3.8 0 6.9 3.1 6.9 6.9 0 3.9-3.1 7-6.9 7z"/><path class="st38" d="M-178.2 232.9l-.2-.2c-2.9-3.2-7.7-4-11.2-1.2l-.2.1c-3.6 2.9.2 9.2-4.8 10.5-.4.1-.5.8-.2 1.1 2.6 2.6 6.3 3.8 9.8 3.2 6.4-1 10.4-7.7 6.8-13.4v-.1z"/></g><path class="st41" d="M-146.1 218.2s-6.9 6.7-21.1 12.1M-171.3 194.9s-9.2 9.8-9.8 22.6"/></g></svg>